<svg width="400" height="400" xmlns="http://www.w3.org/2000/svg">
<polygon points="338.56,120.00 338.56,280.00 200.00,360.00 61.44,280.00 61.44,120.00 200.00,40.00" fill="#08519c" stroke="#ffffff" stroke-width="1" />
<polygon points="312.58,135.00 312.58,265.00 200.00,330.00 87.42,265.00 87.42,135.00 200.00,70.00" fill="#bdd7e7" stroke="#ffffff" stroke-width="1" />
<polygon points="286.60,150.00 286.60,250.00 200.00,300.00 113.40,250.00 113.40,150.00 200.00,100.00" fill="#6baed6" stroke="#ffffff" stroke-width="1" />
<polygon points="260.62,165.00 260.62,235.00 200.00,270.00 139.38,235.00 139.38,165.00 200.00,130.00" fill="#3182bd" stroke="#ffffff" stroke-width="1" />
<polygon points="234.64,180.00 234.64,220.00 200.00,240.00 165.36,220.00 165.36,180.00 200.00,160.00" fill="#08519c" stroke="#ffffff" stroke-width="1" />
</svg>